<svg width="28" height="28" viewBox="0 0 28 28" fill="none" xmlns="http://www.w3.org/2000/svg">
<path d="M11.0834 25.6668H16.9167M9.33335 2.3335H18.6667M14 5.8335V2.3335M4.66669 14.0002H23.3334M19.8334 22.1668L21.5834 25.6668M8.16669 22.1668L6.41669 25.6668M9.91669 18.0835H9.92835M18.0834 18.0835H18.095M10.2667 22.1668H17.7334C19.6935 22.1668 20.6736 22.1668 21.4223 21.7854C22.0809 21.4498 22.6163 20.9144 22.9519 20.2558C23.3334 19.5071 23.3334 18.527 23.3334 16.5668V11.4335C23.3334 9.47331 23.3334 8.49322 22.9519 7.74453C22.6163 7.08596 22.0809 6.55053 21.4223 6.21497C20.6736 5.8335 19.6935 5.8335 17.7334 5.8335H10.2667C8.3065 5.8335 7.32641 5.8335 6.57772 6.21497C5.91915 6.55053 5.38372 7.08596 5.04816 7.74453C4.66669 8.49322 4.66669 9.47331 4.66669 11.4335V16.5668C4.66669 18.527 4.66669 19.5071 5.04816 20.2558C5.38372 20.9144 5.91915 21.4498 6.57772 21.7854C7.32641 22.1668 8.3065 22.1668 10.2667 22.1668ZM10.5 18.0835C10.5 18.4057 10.2389 18.6668 9.91669 18.6668C9.59452 18.6668 9.33335 18.4057 9.33335 18.0835C9.33335 17.7613 9.59452 17.5002 9.91669 17.5002C10.2389 17.5002 10.5 17.7613 10.5 18.0835ZM18.6667 18.0835C18.6667 18.4057 18.4055 18.6668 18.0834 18.6668C17.7612 18.6668 17.5 18.4057 17.5 18.0835C17.5 17.7613 17.7612 17.5002 18.0834 17.5002C18.4055 17.5002 18.6667 17.7613 18.6667 18.0835Z" stroke="black" stroke-width="current" stroke-linecap="round" stroke-linejoin="round"/>
</svg>
